<mxfile host="app.diagrams.net" modified="2021-09-24T12:31:38.396Z" agent="5.0 (Windows NT 10.0; WOW64) AppleWebKit/537.36 (KHTML, like Gecko) Chrome/70.0.3538.25 Safari/537.36 Core/1.70.3877.400 QQBrowser/10.8.4506.400" etag="XFvcNnN-kWTy4tLHWLLi" version="15.3.1" type="github">
  <diagram id="RYVw9wYgqIt0Q-9pDQD2" name="第 1 页">
    <mxGraphModel dx="1044" dy="539" grid="1" gridSize="10" guides="1" tooltips="1" connect="1" arrows="1" fold="1" page="1" pageScale="1" pageWidth="3300" pageHeight="4681" math="0" shadow="0">
      <root>
        <mxCell id="0" />
        <mxCell id="1" parent="0" />
        <mxCell id="TQzLRh1EkL5hF-mLiIIK-4" style="rounded=0;orthogonalLoop=1;jettySize=auto;html=1;fontFamily=Garamond;fontSize=3;startArrow=none;" edge="1" parent="1" source="TQzLRh1EkL5hF-mLiIIK-6">
          <mxGeometry relative="1" as="geometry">
            <mxPoint x="150" y="1030" as="targetPoint" />
          </mxGeometry>
        </mxCell>
        <mxCell id="TQzLRh1EkL5hF-mLiIIK-3" value="&lt;div style=&quot;background-color: rgb(255 , 255 , 255) ; font-size: 3px&quot;&gt;AnnotationConfig&lt;/div&gt;&lt;div style=&quot;background-color: rgb(255 , 255 , 255) ; font-size: 3px&quot;&gt;ApplicationContext&lt;/div&gt;" style="rounded=0;whiteSpace=wrap;html=1;fontFamily=Garamond;fontSize=3;" vertex="1" parent="1">
          <mxGeometry x="80" y="170" width="160" height="40" as="geometry" />
        </mxCell>
        <mxCell id="TQzLRh1EkL5hF-mLiIIK-14" style="edgeStyle=none;rounded=0;orthogonalLoop=1;jettySize=auto;html=1;exitX=1;exitY=0.5;exitDx=0;exitDy=0;entryX=0;entryY=0.5;entryDx=0;entryDy=0;fontFamily=Helvetica;fontSize=1;" edge="1" parent="1" source="TQzLRh1EkL5hF-mLiIIK-6" target="TQzLRh1EkL5hF-mLiIIK-12">
          <mxGeometry relative="1" as="geometry" />
        </mxCell>
        <mxCell id="TQzLRh1EkL5hF-mLiIIK-6" value="&lt;pre style=&quot;background-color: rgb(255 , 255 , 255) ; font-size: 11px&quot;&gt;&lt;p style=&quot;font-size: 11px&quot;&gt;&lt;span style=&quot;color: rgb(0 , 0 , 128) ; font-weight: bold ; font-size: 11px&quot;&gt;this&lt;/span&gt;.reader =&lt;br&gt; &lt;span style=&quot;color: rgb(0 , 0 , 128) ; font-weight: bold ; font-size: 11px&quot;&gt;new &lt;/span&gt;Annotated&lt;br&gt;BeanDefinitionReader(&lt;span style=&quot;color: rgb(0 , 0 , 128) ; font-weight: bold ; font-size: 11px&quot;&gt;this&lt;/span&gt;);&lt;/p&gt;&lt;/pre&gt;" style="rounded=0;whiteSpace=wrap;html=1;fontFamily=Garamond;fontSize=3;align=left;" vertex="1" parent="1">
          <mxGeometry x="70" y="240" width="180" height="50" as="geometry" />
        </mxCell>
        <mxCell id="TQzLRh1EkL5hF-mLiIIK-8" value="" style="rounded=0;orthogonalLoop=1;jettySize=auto;html=1;fontFamily=Garamond;fontSize=3;endArrow=none;" edge="1" parent="1" source="TQzLRh1EkL5hF-mLiIIK-3" target="TQzLRh1EkL5hF-mLiIIK-6">
          <mxGeometry relative="1" as="geometry">
            <mxPoint x="160" y="890" as="targetPoint" />
            <mxPoint x="160" y="210" as="sourcePoint" />
          </mxGeometry>
        </mxCell>
        <mxCell id="TQzLRh1EkL5hF-mLiIIK-11" style="edgeStyle=none;rounded=0;orthogonalLoop=1;jettySize=auto;html=1;exitX=0.5;exitY=1;exitDx=0;exitDy=0;fontFamily=Helvetica;fontSize=1;startArrow=none;" edge="1" parent="1" source="TQzLRh1EkL5hF-mLiIIK-12">
          <mxGeometry relative="1" as="geometry">
            <mxPoint x="365" y="993.8095092773438" as="targetPoint" />
          </mxGeometry>
        </mxCell>
        <mxCell id="TQzLRh1EkL5hF-mLiIIK-9" value="&lt;div style=&quot;background-color: rgb(255 , 255 , 255) ; font-size: 1px&quot;&gt;Annotated&lt;/div&gt;&lt;div style=&quot;background-color: rgb(255 , 255 , 255) ; font-size: 1px&quot;&gt;BeanDefinitionReader&lt;/div&gt;" style="rounded=0;whiteSpace=wrap;html=1;fontFamily=Helvetica;fontSize=1;align=left;" vertex="1" parent="1">
          <mxGeometry x="300" y="170" width="150" height="40" as="geometry" />
        </mxCell>
        <mxCell id="TQzLRh1EkL5hF-mLiIIK-21" style="edgeStyle=none;rounded=0;orthogonalLoop=1;jettySize=auto;html=1;entryX=0;entryY=0.5;entryDx=0;entryDy=0;fontFamily=Tahoma;fontSize=9;" edge="1" parent="1" source="TQzLRh1EkL5hF-mLiIIK-12" target="TQzLRh1EkL5hF-mLiIIK-19">
          <mxGeometry relative="1" as="geometry" />
        </mxCell>
        <mxCell id="TQzLRh1EkL5hF-mLiIIK-12" value="&lt;pre style=&quot;background-color: rgb(255 , 255 , 255) ; font-size: 12pt&quot;&gt;构造函数&lt;/pre&gt;" style="rounded=0;whiteSpace=wrap;html=1;fontFamily=Helvetica;fontSize=1;align=left;" vertex="1" parent="1">
          <mxGeometry x="325" y="230" width="100" height="25" as="geometry" />
        </mxCell>
        <mxCell id="TQzLRh1EkL5hF-mLiIIK-15" value="" style="edgeStyle=none;rounded=0;orthogonalLoop=1;jettySize=auto;html=1;exitX=0.5;exitY=1;exitDx=0;exitDy=0;fontFamily=Helvetica;fontSize=1;endArrow=none;" edge="1" parent="1" source="TQzLRh1EkL5hF-mLiIIK-9" target="TQzLRh1EkL5hF-mLiIIK-12">
          <mxGeometry relative="1" as="geometry">
            <mxPoint x="375" y="853.8095092773438" as="targetPoint" />
            <mxPoint x="375" y="210" as="sourcePoint" />
          </mxGeometry>
        </mxCell>
        <mxCell id="TQzLRh1EkL5hF-mLiIIK-18" style="edgeStyle=none;rounded=0;orthogonalLoop=1;jettySize=auto;html=1;exitX=0.5;exitY=1;exitDx=0;exitDy=0;fontFamily=Helvetica;fontSize=1;startArrow=none;" edge="1" parent="1" source="TQzLRh1EkL5hF-mLiIIK-19">
          <mxGeometry relative="1" as="geometry">
            <mxPoint x="560" y="1381.4285278320312" as="targetPoint" />
          </mxGeometry>
        </mxCell>
        <mxCell id="TQzLRh1EkL5hF-mLiIIK-17" value="&lt;div style=&quot;background-color: rgb(255, 255, 255); font-size: 3px;&quot;&gt;AnnotationConfigUtils&lt;/div&gt;" style="rounded=0;whiteSpace=wrap;html=1;fontFamily=Helvetica;fontSize=3;align=left;horizontal=1;" vertex="1" parent="1">
          <mxGeometry x="510" y="170" width="120" height="40" as="geometry" />
        </mxCell>
        <mxCell id="TQzLRh1EkL5hF-mLiIIK-19" value="&lt;div style=&quot;background-color: rgb(255 , 255 , 255) ; font-size: 9px&quot;&gt;&lt;font style=&quot;font-size: 9px&quot;&gt;register&lt;/font&gt;&lt;/div&gt;&lt;div style=&quot;background-color: rgb(255 , 255 , 255) ; font-size: 9px&quot;&gt;AnnotationConfigProcessors&lt;/div&gt;" style="rounded=0;whiteSpace=wrap;html=1;fontFamily=Tahoma;fontSize=9;align=left;verticalAlign=middle;" vertex="1" parent="1">
          <mxGeometry x="490" y="222.5" width="160" height="40" as="geometry" />
        </mxCell>
        <mxCell id="TQzLRh1EkL5hF-mLiIIK-20" value="" style="edgeStyle=none;rounded=0;orthogonalLoop=1;jettySize=auto;html=1;exitX=0.5;exitY=1;exitDx=0;exitDy=0;fontFamily=Helvetica;fontSize=1;endArrow=none;" edge="1" parent="1" source="TQzLRh1EkL5hF-mLiIIK-17" target="TQzLRh1EkL5hF-mLiIIK-19">
          <mxGeometry relative="1" as="geometry">
            <mxPoint x="560" y="1381.4285278320312" as="targetPoint" />
            <mxPoint x="570" y="210" as="sourcePoint" />
          </mxGeometry>
        </mxCell>
      </root>
    </mxGraphModel>
  </diagram>
</mxfile>
